<?xml version="1.0" encoding="UTF-8"?>
<svg id="Layer_1" data-name="Layer 1" xmlns="http://www.w3.org/2000/svg" viewBox="0 0 785.43 73.32">
  <defs>
    <style>
      .cls-1 {
        fill: #fff;
      }

      .cls-1, .cls-2 {
        stroke-width: 0px;
      }

      .cls-2 {
        fill: #ff4f1f;
      }
    </style>
  </defs>
  <polygon class="cls-1" points="208.65 70.14 208.65 3.34 246.21 3.34 246.21 9.96 215.27 9.96 215.27 33 243.01 33 243.01 39.62 215.27 39.62 215.27 63.52 246.21 63.52 246.21 70.14 208.65 70.14"/>
  <polygon class="cls-1" points="319.42 70.14 319.42 3.34 356.98 3.34 356.98 9.96 326.03 9.96 326.03 33 353.99 33 353.99 39.62 326.03 39.62 326.03 63.52 356.98 63.52 356.98 70.14 319.42 70.14"/>
  <polygon class="cls-1" points="432.11 70.14 432.11 42.4 409.48 3.34 416.95 3.34 435.52 35.35 453.87 3.34 461.34 3.34 438.72 42.4 438.72 70.14 432.11 70.14"/>
  <polygon class="cls-1" points="305.76 70.14 305.76 3.34 299.14 3.34 299.14 57.97 265.85 3.34 259.23 3.34 259.23 70.14 265.85 70.14 265.85 15.5 299.14 70.14 305.76 70.14"/>
  <path class="cls-1" d="m173.22,41.33h16v5.33c0,13-8.33,17.72-16,17.72s-16-4.7-16-17.72v-20.06c0-13,8.33-17.71,16-17.71,8.54,0,14.3,5.12,15.79,13.66h6.62c-1.49-12.38-10.24-20.28-22.41-20.28-13.66,0-22.62,9.82-22.62,24.33v20.06c0,14.52,9.18,24.34,22.62,24.34s22.62-9.82,22.62-24.34v-11.95h-22.62v6.62Z"/>
  <path class="cls-1" d="m371.93,49.86c.64,9,6.62,14.52,14.94,14.52s13-4.06,13-11.74c0-5.55-3.42-9.61-9.18-11.1l-11.31-3c-8.32-2.13-13.23-9-13.23-17.92,0-10.89,7.68-18.14,19.21-18.14,13.23,0,19,9.17,20.27,18.35h-6.62c-1.49-7.68-6.4-11.74-13.44-11.74-7.69,0-12.59,4.48-12.59,11.53,0,5.76,3.2,10,8.75,11.52l11.74,3.2c8.11,1.99,13.72,9.38,13.46,17.73,0,11.31-7.68,18.35-19.85,18.35-15.15,0-21.35-11.49-21.56-21.13l6.41-.43Z"/>
  <path class="cls-1" d="m470.93,49.86c.64,9,6.62,14.52,14.94,14.52s13-4.06,13-11.74c0-5.55-3.42-9.61-9.18-11.1l-11.31-3c-8.32-2.13-13.23-9-13.23-17.92,0-10.89,7.68-18.14,19.2-18.14,13.24,0,19,9.17,20.28,18.35h-6.62c-1.49-7.68-6.4-11.74-13.44-11.74-7.69,0-12.59,4.48-12.59,11.53,0,5.76,3.2,10,8.75,11.52l11.74,3.2c8.11,1.99,13.72,9.38,13.46,17.73,0,11.31-7.68,18.35-19.85,18.35-15.15,0-21.32-11.49-21.53-21.13l6.38-.43Z"/>
  <path class="cls-2" d="m591.87,49.66c-.76,7.04-3.28,12.43-7.55,16.16-4.27,3.73-9.94,5.6-17,5.6-4.65.09-9.23-1.21-13.15-3.72-3.9-2.59-6.97-6.24-8.84-10.53-2.15-4.91-3.23-10.22-3.16-15.58v-8.66c-.1-5.43.96-10.81,3.12-15.79,1.88-4.35,5.02-8.05,9-10.62,4.03-2.53,8.71-3.83,13.47-3.74,7.16,0,12.83,1.93,17,5.78,4.17,3.85,6.58,9.19,7.23,16h-5.69c-1.41-11.33-7.58-17-18.5-17-5.64-.19-11.03,2.34-14.48,6.8-3.59,4.53-5.38,10.8-5.39,18.79v8.17c0,7.72,1.75,13.88,5.25,18.47,3.32,4.49,8.63,7.07,14.21,6.89,5.91,0,10.36-1.42,13.36-4.25,3-2.83,4.85-7.08,5.55-12.74l5.57-.03Z"/>
  <path class="cls-2" d="m610.46,70.5h-5.53V0h5.51l.02,70.5Z"/>
  <path class="cls-2" d="m622.35,44.93c-.07-4.45.88-8.87,2.77-12.9,3.48-7.52,11.07-12.27,19.35-12.1,6.14-.2,12.04,2.37,16.07,7,4.1,4.63,6.15,10.77,6.15,18.42v1.15c.07,4.49-.88,8.93-2.78,13-1.69,3.66-4.41,6.75-7.83,8.88-3.47,2.11-7.46,3.19-11.52,3.12-6.1.19-11.97-2.36-16-6.95-4.11-4.67-6.17-10.81-6.17-18.43l-.04-1.19Zm5.51,1.51c0,5.94,1.54,10.81,4.61,14.62,5.45,6.67,15.27,7.65,21.94,2.2.81-.66,1.54-1.4,2.2-2.2,3.08-3.81,4.62-8.84,4.61-15.08v-1.05c.05-3.58-.67-7.14-2.11-10.42-1.24-2.95-3.29-5.49-5.92-7.32-2.57-1.74-5.62-2.65-8.72-2.6-4.69-.1-9.15,2.04-12,5.76-3.09,3.84-4.63,8.87-4.63,15.08l.02,1.01Z"/>
  <path class="cls-2" d="m709.93,64.21c-3.33,4.81-8.61,7.22-15.84,7.21-5.29,0-9.32-1.54-12.07-4.61-2.75-3.07-4.16-7.63-4.22-13.66V20.84h5.46v31.62c0,9.46,3.83,14.19,11.48,14.19s12.98-3.29,15.1-9.87V20.84h5.5v49.66h-5.32l-.09-6.29Z"/>
  <path class="cls-2" d="m727.46,45.21c0-7.71,1.72-13.85,5.16-18.43,3.24-4.47,8.48-7.04,14-6.86,6.67,0,11.78,2.65,15.33,7.94V0h5.46v70.5h-5.14l-.21-6.57c-3.52,5.02-8.69,7.53-15.51,7.53-5.47.13-10.65-2.46-13.84-6.91-3.5-4.6-5.25-10.82-5.25-18.65v-.69Zm5.55,1c0,6.33,1.27,11.33,3.81,15,2.38,3.58,6.45,5.66,10.74,5.49,6.76,0,11.56-2.98,14.41-8.95v-23.37c-2.84-6.46-7.61-9.69-14.32-9.68-4.29-.17-8.37,1.89-10.79,5.44-2.57,3.62-3.85,8.97-3.85,16.04v.03Z"/>
  <polygon class="cls-2" points="774.55 .86 772.41 .86 772.41 0 777.75 0 777.75 .86 775.62 .86 775.62 6.83 774.55 6.83 774.55 .86"/>
  <polygon class="cls-2" points="781.59 6.83 779.67 1.07 779.67 6.83 778.6 6.83 778.6 0 780.31 0 782.02 5.55 783.73 0 785.43 0 785.43 6.83 784.37 6.83 784.37 1.07 782.45 6.83 781.59 6.83"/>
  <path class="cls-2" d="m75.93,33.66h-27.63c-9.19,0-16.64-7.45-16.64-16.64,0-9.19,7.45-16.64,16.64-16.64,0,0,0,0,0,0h27.63c4.51.01,8.83,1.83,12,5.05,3.05,3.1,4.7,7.3,4.59,11.64-.03,9.15-7.44,16.56-16.59,16.59ZM48.3,4.38c-6.91-.08-12.57,5.46-12.65,12.37,0,.09,0,.18,0,.27-.07,6.91,5.47,12.57,12.38,12.64.09,0,.18,0,.27,0h27.63c6.97-.02,12.6-5.67,12.61-12.64.1-3.28-1.14-6.46-3.45-8.8-2.42-2.45-5.72-3.83-9.16-3.84h-27.63Z"/>
  <path class="cls-2" d="m97.59,73.31h-27.12c-9.35.23-17.12-7.17-17.35-16.52-.23-9.35,7.17-17.12,16.52-17.35.27,0,.55,0,.82,0h27.12c4.61,0,9.03,1.85,12.27,5.14,3.1,3.15,4.79,7.42,4.67,11.84-.06,9.32-7.62,16.86-16.94,16.89Zm-27.12-29.87c-7.07-.08-12.86,5.59-12.94,12.66,0,.09,0,.18,0,.27.03,7.13,5.81,12.91,12.94,12.94h27.12c7.13-.03,12.91-5.81,12.94-12.94.1-3.36-1.17-6.61-3.53-9-2.48-2.52-5.87-3.93-9.41-3.93h-27.12Z"/>
  <path class="cls-2" d="m29.15,73.31h-11.8C8,73.54.23,66.14,0,56.79c-.23-9.35,7.17-17.12,16.52-17.35.27,0,.55,0,.82,0h11.8c4.61,0,9.03,1.85,12.27,5.14,3.1,3.15,4.79,7.42,4.67,11.84-.06,9.32-7.62,16.86-16.94,16.89Zm-11.8-29.87c-7.07-.08-12.86,5.59-12.94,12.66,0,.09,0,.18,0,.27.03,7.13,5.81,12.91,12.94,12.94h11.8c7.13-.03,12.91-5.81,12.94-12.94.1-3.36-1.18-6.6-3.53-9-2.48-2.52-5.87-3.93-9.41-3.93h-11.8Z"/>
</svg>